<svg xmlns="http://www.w3.org/2000/svg" width="120" height="60" viewBox="0 0 120 60">
  <g id="_000000ff" data-name="#000000ff" transform="translate(-78.756 -43.86)">
    <path id="Path_1" data-name="Path 1" d="M462.95,44.008l.445-.148c1.548.733,3.1,1.452,4.651,2.18.753-.443,1.5-.906,2.261-1.326a2.68,2.68,0,0,1,1.682-.387.6.6,0,0,1,.458.769,2.631,2.631,0,0,1-1.157,1.281c-.753.464-1.529.89-2.306,1.312-.2,1.748-.395,3.5-.551,5.251-.2.14-.436.355-.638.093-.164-1.474-.244-2.959-.369-4.438q-1.672.8-3.407,1.446-.139.666-.281,1.331c-.091.045-.274.134-.367.177a5.242,5.242,0,0,1-.347-1.475c-.4-.4-1.026-.637-1.234-1.2l.3-.177a13.889,13.889,0,0,1,1.451.486c.952-.791,1.936-1.542,2.957-2.238-1.181-.86-2.361-1.72-3.548-2.569C462.949,44.287,462.949,44.1,462.95,44.008Z" transform="translate(-332.319 0)" fill="#707070"/>
    <path id="Path_2" data-name="Path 2" d="M115.171,96.038c4.921-1.624,9.953-2.939,14.74-4.958.083.165.167.329.249.5-4.846,2.03-9.933,3.353-14.921,4.958a5.719,5.719,0,0,1,.036,4.2,9.9,9.9,0,0,1-4.6,4.76c-.336.242-.69-.429-.324-.594a10.685,10.685,0,0,0,3.681-3.947,4.48,4.48,0,0,0,.048-4.025c-2.276.768-4.508,1.666-6.706,2.64a23.544,23.544,0,0,0-4.124,2.26,3.884,3.884,0,0,0-1.643,2.736,1.732,1.732,0,0,0,.866,1.637,5,5,0,0,0,2.393.618,8.7,8.7,0,0,0,3.625-1,.99.99,0,0,1,1.086.019,18.45,18.45,0,0,1-4.168,1.656,5.339,5.339,0,0,1-3.113-.032,2.777,2.777,0,0,1-1.63-3.295,5.073,5.073,0,0,1,1.736-2.258,22.162,22.162,0,0,1,4.364-2.563,63.512,63.512,0,0,1,7.07-2.866,5.431,5.431,0,0,0-3.39-2.141,16.089,16.089,0,0,0-6.623.173,35.073,35.073,0,0,0-6.333,1.853,27.443,27.443,0,0,0-7.158,4.036,10.8,10.8,0,0,0-4.193,6.247,6.971,6.971,0,0,0,1.345,4.837c2.01,3.066,4.78,5.479,7.248,8.14a41.794,41.794,0,0,1,3.7,4.321c1.836-.934,3.731-1.743,5.642-2.5a31.8,31.8,0,0,1,5.534-1.668c.148-.049.352-.051.421-.224.376-.652.643-1.362.964-2.042.175.07.434.058.5.285a8.114,8.114,0,0,1-.4,1.693c.191.05.422.035.567.2,0,.1.008.312.011.414a9.338,9.338,0,0,1,3.376-2.324,2.029,2.029,0,0,1,2.309.522,2.781,2.781,0,0,1,.185,2.661,10.764,10.764,0,0,0,3.347-1.012,1.256,1.256,0,0,0,.514-.553,8.133,8.133,0,0,1,2.141-2.254,4.309,4.309,0,0,1,2.259-.952,1.482,1.482,0,0,1,1.3.682,1.631,1.631,0,0,1-.072,1.621.35.35,0,0,1-.461.186c-.232-.32-.162-.745-.29-1.106-.385-.25-.833-.013-1.194.169a7.641,7.641,0,0,0-2.724,2.628,3.006,3.006,0,0,0-.406,1.295,4.487,4.487,0,0,0,1.946-.524,9.581,9.581,0,0,0,2.381-1.49,20.165,20.165,0,0,1,1.627-1.98.622.622,0,0,1,.912.783c-1.01,1.407-2.046,2.8-2.919,4.306a4.533,4.533,0,0,0-.7,1.816c.107.389.576.273.867.234a8.608,8.608,0,0,0,3.141-1.643,20.7,20.7,0,0,0,3.623-3.456,8.389,8.389,0,0,1,2.892-1.536,1.334,1.334,0,0,1,1.48,1.521c-.1.679-.765,1.471-1.494,1.226-.011-.535.542-.991.283-1.516a6.238,6.238,0,0,0-3.3,2.868,2.894,2.894,0,0,0-.376,2.378,1.208,1.208,0,0,0,1.295.521,8.731,8.731,0,0,0,3.652-1.346,19.223,19.223,0,0,0,3.846-3.1,10.017,10.017,0,0,0,.9-1.523,6.526,6.526,0,0,1,2.8-2.547,1.212,1.212,0,0,1,1.6.5,1.515,1.515,0,0,1-.393,1.675,5.979,5.979,0,0,1-3.2,1.712,3.518,3.518,0,0,0-.237,2.551c.173.44.7.475,1.1.466a12.055,12.055,0,0,0,4.97-1.64,19.584,19.584,0,0,0,2.69-1.728,4.624,4.624,0,0,1,1.016-3.8,2.149,2.149,0,0,1,2.892-.259,2.265,2.265,0,0,1-.019,3.048c-.119.209-.342.134-.527.108-.081-.678.436-1.355.081-2.01-.261-.547-1-.452-1.4-.117a2.786,2.786,0,0,0-.767,2.392,20.732,20.732,0,0,0,1.095,3.96,22.969,22.969,0,0,0,5.193-1.907c.377-.169.531-.579.715-.923.44-.9.927-1.77,1.305-2.7.085-.14.1-.359.273-.422.144-.015.4.016.412.209a5.962,5.962,0,0,1-.413,1.818c.187.072.375.15.561.229a4.133,4.133,0,0,1-.473.744,13.192,13.192,0,0,1,3.54-2.657,2.264,2.264,0,0,1,2.573.271,2.708,2.708,0,0,1,.281,2.783,8.915,8.915,0,0,0,2.9-.844c.282-.413.506-.865.8-1.269a2.83,2.83,0,0,1,.776-2.81,4.948,4.948,0,0,1,3.421-1.443,1.893,1.893,0,0,1,1.785.961,3.971,3.971,0,0,1-.254,3.157,25.542,25.542,0,0,0,5.734-4.727,79.588,79.588,0,0,0,6.608-8.3,140.179,140.179,0,0,0-19.953,1.293c-2.12.274-4.246.536-6.335,1a10.035,10.035,0,0,1-1.332.325.408.408,0,0,1-.136-.742,10.536,10.536,0,0,1,2.149-1.05,5.057,5.057,0,0,1,1.55-.454c.33-.045.348.363.448.582,3.425-.548,6.873-.925,10.326-1.228a134.233,134.233,0,0,1,13.86-.566c1.147-2.05,2.261-4.122,3.527-6.1a18.949,18.949,0,0,1,1.7-2.478.606.606,0,0,1,1.05.347.66.66,0,0,1-.13.475,77.6,77.6,0,0,0-4.85,7.81,42.284,42.284,0,0,1,7.1.7c.577.08.348,1.02-.212.815a50.727,50.727,0,0,0-7.37-.7c-2.6,4.72-5.064,9.526-7.213,14.479a70.12,70.12,0,0,0-3,8c-.241.79-.437,1.593-.67,2.387a.643.643,0,0,1,.79.18,2.8,2.8,0,0,1-.343,1.03c-.375.791-.691,1.61-1.079,2.393-.187.422-.878.115-.76-.313a34.566,34.566,0,0,1,1.953-8.437,134.672,134.672,0,0,1,7.119-16.158,63.192,63.192,0,0,1-4.948,5.779,21.489,21.489,0,0,1-6.011,4.581,8.819,8.819,0,0,1-3.67,3.893,1.948,1.948,0,0,1-2.309-.213,2.679,2.679,0,0,1-.384-2.432,15.007,15.007,0,0,1-3.081.7,8.289,8.289,0,0,1-1.948,1.67,4.949,4.949,0,0,1-3.873.518,1.121,1.121,0,0,1-.88-1.158c.113-.67.755-1.022,1.308-1.272a9.14,9.14,0,0,1,4.152-.333,1.9,1.9,0,0,0,.69-1.841c-.146-.5-.741-.606-1.181-.54a5.781,5.781,0,0,0-2.766,1.486,29.37,29.37,0,0,0-2.962,2.906c-.666,1.228-1.258,2.5-1.92,3.73-2.084,3.962-4.33,7.836-6.783,11.571-.4.571-.847,1.25-1.593,1.339a.665.665,0,0,1-.675-.787,10.644,10.644,0,0,1,1.084-3.248,57.741,57.741,0,0,1,6.375-9.442,13.588,13.588,0,0,0,1.486-1.986c.332-.634.666-1.268,1.006-1.9a33.486,33.486,0,0,1-4.935,1.768,4.911,4.911,0,0,1-1.025,4.133,3.03,3.03,0,0,1-4.118.557,2.13,2.13,0,0,1-.078-3.082,8.658,8.658,0,0,1,3.767-1.789c-.3-1.011-.653-2-.919-3.026a33.59,33.59,0,0,1-5.524,3.163,6.524,6.524,0,0,1-2.784.7,1.976,1.976,0,0,1-1.748-1.1,4.906,4.906,0,0,1-.258-2.113,23.554,23.554,0,0,1-5.64,4.137,4.522,4.522,0,0,1-2.966.63,2.165,2.165,0,0,1-1.562-1.6,4.439,4.439,0,0,1,.254-2.465,19.981,19.981,0,0,1-4.462,3.317,2.331,2.331,0,0,1-2.026.209,1.507,1.507,0,0,1-.714-1.564,7.837,7.837,0,0,1,.928-2.353,7.414,7.414,0,0,1-2.59,1.06,1.424,1.424,0,0,1-1.491-.587,2.526,2.526,0,0,1-.078-1.625,12.856,12.856,0,0,1-3.476.859c-.263,0-.4.261-.572.418a5.583,5.583,0,0,1-4.048,2,2.85,2.85,0,0,1-2.048-.562c-.458-.437-.249-1.466.389-1.524l-.2-.193c-.352.59-.977.944-1.319,1.539a141.41,141.41,0,0,1-8.593,15.128c-.4.576-.87,1.257-1.621,1.324a.725.725,0,0,1-.614-.956,13.8,13.8,0,0,1,1.754-4.378,72.489,72.489,0,0,1,6.855-9.6c.812-1.4,1.524-2.859,2.3-4.28a45.128,45.128,0,0,0-10.852,3.97,10.246,10.246,0,0,1,2.054,6.6,14.9,14.9,0,0,1-4.83,8.887,18.7,18.7,0,0,1-9.889,4.719,7.777,7.777,0,0,1-5.818-1.324,3.64,3.64,0,0,1-1.282-4.113,11.352,11.352,0,0,1,2.3-3.325,49.174,49.174,0,0,1,9.281-7.4q3.2-2.045,6.539-3.838c-2.363-3.182-5.378-5.767-8.017-8.7a23.014,23.014,0,0,1-3.677-5.146,7.187,7.187,0,0,1-.588-4.8,12.406,12.406,0,0,1,4.806-6.836,27.935,27.935,0,0,1,6.522-3.731,35.894,35.894,0,0,1,9.655-2.578,12.661,12.661,0,0,1,6.305.694,5.825,5.825,0,0,1,2.713,2.257c.1.094.169.362.35.256m58.37,19.7a2.942,2.942,0,0,0-1.7,2.516,4.321,4.321,0,0,1,1.474-1.065.621.621,0,0,1,.634.957c-.416.408-.884.759-1.266,1.205a4.251,4.251,0,0,0,3.625-.251,5.28,5.28,0,0,0,.7-2.671,1.245,1.245,0,0,0-.716-1.131,3.64,3.64,0,0,0-2.755.44m-30.319,4.1a3.66,3.66,0,0,0,2.1-2,5.289,5.289,0,0,0-2.1,2m-28.886-.9a16.853,16.853,0,0,0-3.294,2.52c.062.053.126.107.191.159,1.354-.934,3.073-.676,4.613-.6a2.315,2.315,0,0,0,.722-1.188.97.97,0,0,0-.408-1.114,2.373,2.373,0,0,0-1.823.227m57.953.933a5.5,5.5,0,0,0-.817,1.96.742.742,0,0,0,.4.825,1.9,1.9,0,0,0,1.719-.246,7.747,7.747,0,0,0,2.158-2.4,4.479,4.479,0,0,1-3.458-.142m-61.477.46a6.924,6.924,0,0,0-.385.922c.391-.393.785-.782,1.21-1.137-.262.1-.587.057-.825.215m1.382,1.567a2.1,2.1,0,0,0-.765.694,4.651,4.651,0,0,0,3.822-1.037,6.47,6.47,0,0,0-3.057.343m50.33-.093a2.637,2.637,0,0,0-.988.769,4.56,4.56,0,0,0,3.856-1.025,7.534,7.534,0,0,0-2.868.255m-12.846,3.869a1.467,1.467,0,0,0-.594,1.562,1.28,1.28,0,0,0,.973.794,2.052,2.052,0,0,0,1.6-.6,3.447,3.447,0,0,0,.835-2.989,9.857,9.857,0,0,0-2.814,1.235M86.911,131.74A40.119,40.119,0,0,0,83.085,135a15.034,15.034,0,0,0-2.882,3.53,2.967,2.967,0,0,0-.4,2.064,3.545,3.545,0,0,0,1.635,1.918,6.365,6.365,0,0,0,3.448.836,14.9,14.9,0,0,0,5.789-1.548,17.494,17.494,0,0,0,4.994-3.562,13.3,13.3,0,0,0,3.689-7.1c.319-2.194-.719-4.293-1.917-6.039a74.784,74.784,0,0,0-10.527,6.648m64.3,2.659a13.7,13.7,0,0,0-1.573,3.808c.78-1.165,1.5-2.368,2.212-3.578,1.4-2.412,2.807-4.823,4.147-7.27a52.14,52.14,0,0,0-4.786,7.041m-46.782-5.174a44.567,44.567,0,0,0-4.057,6.527,9.843,9.843,0,0,0-.858,2.4c.653-.9,1.206-1.861,1.779-2.81,1.529-2.617,3.062-5.232,4.514-7.893A22.258,22.258,0,0,0,104.425,129.226Z" transform="translate(0 -40.846)" fill="#707070"/>
  </g>
</svg>
