<svg id="user" xmlns="http://www.w3.org/2000/svg" width="36" height="36" viewBox="0 0 36 36">
  <circle id="Ellipse_1" data-name="Ellipse 1" cx="18" cy="18" r="18" fill="#ccc"/>
  <path id="Path_3" data-name="Path 3" d="M90.312,88.026a6.681,6.681,0,0,0-2.772-1.28l-4.934-.99a1.113,1.113,0,0,1-.891-1.1V83.521a13.522,13.522,0,0,0,.929-1.656,9.091,9.091,0,0,1,.792-1.388A7.356,7.356,0,0,0,85.7,76.893a3.457,3.457,0,0,0-.317-2.655A19.931,19.931,0,0,0,85,69.69a4.964,4.964,0,0,0-1.172-3.643,3.479,3.479,0,0,0-2.09-.878,3.653,3.653,0,0,1-.767-.18,7.94,7.94,0,0,0-3.8-.99c-2.963.121-6.606,2.007-7.826,5.368a12.771,12.771,0,0,0-.308,4.054L69,74.235a3.6,3.6,0,0,0-.295,2.655,7.343,7.343,0,0,0,2.279,3.6,9.876,9.876,0,0,1,.79,1.382,13.985,13.985,0,0,0,.936,1.649v1.132a1.118,1.118,0,0,1-.9,1.1l-4.939.99a6.7,6.7,0,0,0-2.763,1.278,1.128,1.128,0,0,0-.133,1.638,17.913,17.913,0,0,0,26.46,0,1.127,1.127,0,0,0-.133-1.638Z" transform="translate(-59.214 -59.5)" fill="#fff"/>
</svg>
